<svg xmlns="http://www.w3.org/2000/svg" viewBox="0 0 1600 520" role="img" aria-labelledby="title desc"><title id="title">EnglishAI-Ecosystem</title><desc id="desc">A local, RAG and MCP enabled AI ecosystem for English language learning</desc><defs><linearGradient id="bg" x1="0" x2="1"><stop stop-color="#071b33"/><stop offset=".55" stop-color="#0d2947"/><stop offset="1" stop-color="#06182d"/></linearGradient><linearGradient id="wine" x1="0" x2="1"><stop stop-color="#5f1421"/><stop offset="1" stop-color="#9f3045"/></linearGradient></defs><rect width="1600" height="520" rx="28" fill="url(#bg)"/><path d="M0 0h190c40 130 30 260 145 520H0z" fill="url(#wine)" opacity=".96"/><path d="M1600 0h-190c-50 150-20 320-150 520h340z" fill="url(#wine)" opacity=".96"/><g fill="none" stroke="#8ddfff" stroke-width="7" opacity=".9"><path d="M92 292V130l105-55 105 55v162l-105 62z"/><path d="M125 145h145M125 183h105M125 221h78"/><circle cx="300" cy="118" r="28"/><path d="M300 90v-42m-23 53-35-30m58 30 37-33M300 146v45"/></g><text x="355" y="150" fill="#fff" font-family="Arial,sans-serif" font-size="74" font-weight="800" letter-spacing="2">ENGLISHAI-ECOSYSTEM</text><text x="360" y="220" fill="#fff" font-family="Arial,sans-serif" font-size="34">A Local, RAG and MCP-Enabled AI Ecosystem for ESL</text><g font-family="Arial,sans-serif" fill="#fff"><text x="365" y="302" font-size="25" fill="#9ee7ff">◆ Local-First</text><text x="590" y="302" font-size="25" fill="#91f0c1">◉ RAG Enabled</text><text x="830" y="302" font-size="25" fill="#a8d8ff">MCP →</text><text x="1005" y="302" font-size="23">English Knowledge Base | Local LLM Inference</text><text x="1005" y="337" font-size="23">Learning Tools | Teacher Controls | Evidence-Grounded Assessment</text><text x="365" y="405" font-size="24">◆ Local-First</text><text x="600" y="405" font-size="24">◉ RAG Enabled</text><text x="820" y="405" font-size="24">⌘ MCP Services</text><rect x="1080" y="367" width="400" height="62" rx="12" fill="#172d46" stroke="#53718d"/><text x="1110" y="405" font-size="22">GitHub Repository | Active Development</text></g><text x="35" y="350" fill="#fff" font-family="Georgia,serif" font-size="30" font-style="italic">Better</text><text x="35" y="390" fill="#fff" font-family="Georgia,serif" font-size="30" font-style="italic">English</text><text x="35" y="430" fill="#fff" font-family="Georgia,serif" font-size="30" font-style="italic">Brighter Futures</text><text x="1380" y="350" fill="#fff" font-family="Georgia,serif" font-size="27" text-anchor="middle">AI-Powered</text><text x="1380" y="385" fill="#fff" font-family="Georgia,serif" font-size="27" text-anchor="middle">English Learning</text><text x="1380" y="420" fill="#fff" font-family="Georgia,serif" font-size="27" text-anchor="middle">for a Global Tomorrow</text></svg>